PathFileType	4	(X/Y/Z)
DataRate	CameraRate	NumFrames	NumMarkers	Units	OrigDataRate	OrigDataStartFrame	OrigNumFrames	
  100.0	  100.0	     6	     56	     mm	  100.0	      54	     86
Frame#	Time	LASI			RASI			LPSI			RPSI			RTH1			RTH2			RTH3			RLFC			RMFC			LTH1			LTH2			LTH3			LLFC			LMFC			RTB1			RTB2			RTB3			RLMAL			RMMAL			LTB1			LTB2			LTB3			LMMAL			LLMAL			RCAL			RTOE			RMT5			LCAL			LTOE			LMT5			LACR			RACR			CLAV			C7			LASH			LPSH			RASH			RPSH			RUA1			RUA2			RUA3			RLEL			RMEL			LUA1			LUA2			LUA3			LLEL			LMEL			RFAsuperior			RFAradius			RFAulna			LFAsuperior			LFAradius			LFAulna			RHJC			LHJC			
		X1	Y1	Z1	X2	Y2	Z2	X3	Y3	Z3	X4	Y4	Z4	X5	Y5	Z5	X6	Y6	Z6	X7	Y7	Z7	X8	Y8	Z8	X9	Y9	Z9	X10	Y10	Z10	X11	Y11	Z11	X12	Y12	Z12	X13	Y13	Z13	X14	Y14	Z14	X15	Y15	Z15	X16	Y16	Z16	X17	Y17	Z17	X18	Y18	Z18	X19	Y19	Z19	X20	Y20	Z20	X21	Y21	Z21	X22	Y22	Z22	X23	Y23	Z23	X24	Y24	Z24	X25	Y25	Z25	X26	Y26	Z26	X27	Y27	Z27	X28	Y28	Z28	X29	Y29	Z29	X30	Y30	Z30	X31	Y31	Z31	X32	Y32	Z32	X33	Y33	Z33	X34	Y34	Z34	X35	Y35	Z35	X36	Y36	Z36	X37	Y37	Z37	X38	Y38	Z38	X39	Y39	Z39	X40	Y40	Z40	X41	Y41	Z41	X42	Y42	Z42	X43	Y43	Z43	X44	Y44	Z44	X45	Y45	Z45	X46	Y46	Z46	X47	Y47	Z47	X48	Y48	Z48	X49	Y49	Z49	X50	Y50	Z50	X51	Y51	Z51	X52	Y52	Z52	X53	Y53	Z53	X54	Y54	Z54	X55	Y55	Z55	X56	Y56	Z56	

266	2.66000	729.29660	1022.04916	-608.51242	484.18928	1023.64095	-598.64981	648.64746	1047.78980	-769.63136	551.62775	1044.88282	-769.18736	408.16029	786.95925	-677.11655	413.51461	697.75205	-628.80946	421.51769	610.75004	-701.62384	417.64595	515.71104	-724.32208	525.44040	491.38379	-692.09911	791.36440	826.82779	-663.77715	792.91604	719.12342	-624.32509	784.16978	613.38644	-694.67232	786.20888	527.28267	-686.04155	673.97590	507.66804	-681.25062	451.41083	387.76320	-679.88095	400.86067	321.49670	-728.49876	448.13651	202.74845	-707.24076	411.84952	125.67352	-764.83167	484.74360	137.71446	-729.96489	752.16423	405.57134	-661.53221	809.51719	338.22194	-728.73829	762.64720	219.43797	-688.13221	728.43127	132.73937	-694.89115	799.93204	119.72709	-748.26767	466.48383	108.13048	-813.34048	464.86758	71.06933	-593.18149	367.88202	45.82208	-644.20067	745.32213	107.17626	-797.21336	771.68509	71.62046	-580.00092	860.30142	47.39209	-637.62868	753.87821	1494.63236	-703.19499	453.33659	1497.95099	-682.77290	589.90568	1439.45006	-595.32968	596.51141	1519.30576	-745.01141	764.01993	1431.95396	-641.17826	755.26374	1442.04851	-784.75517	451.56652	1439.45840	-625.87113	428.28887	1447.16121	-759.75917	368.74114	1364.59673	-703.59053	384.91583	1290.19676	-759.18515	356.88980	1220.21008	-692.21897	351.44783	1152.34128	-715.17532	418.07052	1148.35107	-733.63860	828.78867	1358.02888	-742.32597	788.94549	1290.47958	-783.78011	844.52577	1244.70742	-727.43369	853.24530	1160.65831	-738.83666	790.02267	1151.04853	-758.61374	327.05416	1060.97462	-653.12423	365.19607	938.35654	-584.82864	354.03295	924.49196	-653.47580	866.40259	1084.41567	-653.85854	834.59941	947.55877	-589.90223	842.03470	926.60078	-655.69694	509.11683	936.61057	-651.54156	685.12777	948.93754	-671.38294	
267	2.67000	729.24816	1022.03606	-608.82376	484.12265	1023.57804	-598.82644	648.54219	1047.86632	-769.87375	551.52279	1044.92837	-769.37565	408.16802	786.97830	-677.43085	413.43840	697.72494	-629.12203	421.49942	610.75547	-702.02521	417.59637	515.70899	-724.59730	525.40783	491.37141	-692.41823	791.42744	826.86461	-664.23200	792.88530	719.10829	-624.74293	784.13780	613.39013	-695.04376	786.21764	527.28176	-686.38017	673.99179	507.61918	-681.70146	451.34223	387.81820	-680.08122	400.79621	321.44970	-728.73926	448.06907	202.80649	-707.47799	412.06725	125.64305	-764.85278	484.72189	137.69667	-730.00149	752.19323	405.63625	-661.75054	809.51316	338.21095	-728.96497	762.68022	219.48713	-688.26594	728.45476	132.73665	-694.95817	799.95736	119.71936	-748.33023	466.47997	108.11271	-813.37051	464.87412	71.07811	-593.21566	367.87612	45.81415	-644.21389	745.33733	107.15712	-797.20047	771.64711	71.64459	-580.03126	860.31111	47.40462	-637.67326	753.74446	1494.79925	-703.44214	453.36340	1498.13050	-683.07439	589.82663	1439.54954	-595.35687	596.58032	1519.34829	-744.91760	763.91872	1432.25017	-641.54747	754.90802	1442.00885	-785.02064	451.55319	1439.78613	-626.17438	428.50218	1447.16294	-760.08554	368.42775	1365.61904	-704.14894	384.45707	1290.57268	-758.98709	353.51043	1222.16056	-692.18312	347.32652	1154.14632	-714.91259	414.30073	1148.62765	-732.12017	828.80157	1358.85364	-742.67419	789.44827	1290.38894	-782.99076	847.14500	1246.46601	-727.50327	857.58260	1162.65160	-738.50246	794.23961	1151.44720	-757.06474	319.82215	1063.88397	-652.75881	353.86885	940.93341	-582.87300	344.20419	926.57686	-651.45826	873.86703	1087.15693	-653.47630	846.56752	949.85173	-588.31247	853.19325	928.77230	-654.58648	509.05861	936.58770	-651.80795	685.06247	948.95156	-671.68928	
268	2.68000	729.18048	1022.00288	-609.13127	484.07648	1023.50413	-598.94824	648.44825	1047.94413	-770.14468	551.42380	1044.97485	-769.59212	408.21039	786.97330	-677.71153	413.37740	697.67771	-629.39766	421.54187	610.75050	-702.45168	417.60680	515.67139	-724.94745	525.38907	491.36250	-692.79641	791.49674	826.87511	-664.60011	792.86850	719.08979	-625.10217	784.14297	613.41571	-695.48694	786.23090	527.26513	-686.75279	673.92584	507.49723	-682.09670	451.30771	387.88161	-680.25444	400.73571	321.41553	-728.89891	448.03571	202.87293	-707.68815	412.39698	125.62842	-764.87308	484.72184	137.67896	-730.04616	752.17086	405.63779	-662.00583	809.51854	338.18719	-729.18952	762.70245	219.52096	-688.39337	728.49621	132.71163	-695.00171	800.00064	119.68934	-748.36931	466.49755	108.09596	-813.41172	464.89280	71.07774	-593.24277	367.91008	45.77842	-644.23078	745.37375	107.14556	-797.21745	771.67755	71.62063	-580.10368	860.33142	47.37813	-637.65676	753.60442	1494.96389	-703.73709	453.44490	1498.34144	-683.44179	589.73439	1439.67600	-595.41733	596.68931	1519.36634	-744.90492	763.84861	1432.58681	-641.91958	754.59912	1441.95396	-785.29324	451.48174	1440.18760	-626.56203	428.78685	1447.15972	-760.48279	367.98109	1366.78354	-704.75393	383.98505	1290.95603	-758.70782	350.01004	1224.26681	-692.18560	342.72464	1156.23906	-714.54509	410.03125	1148.99509	-730.36170	828.98704	1359.79161	-742.97550	790.27976	1290.35340	-782.01552	850.14018	1248.46882	-727.45551	862.47880	1164.95816	-738.03192	799.08312	1152.00933	-755.35246	312.00283	1067.14998	-652.33641	341.67983	944.10022	-580.71338	333.71810	929.17210	-649.34471	882.02336	1090.34876	-653.02620	859.60676	952.69662	-586.61950	865.45894	931.46802	-653.45613	508.99592	936.56201	-652.07359	684.99467	948.94992	-671.98520	
269	2.69000	729.11310	1021.95827	-609.41936	484.04571	1023.42708	-599.03212	648.35915	1048.01342	-770.43342	551.31939	1045.03017	-769.81424	408.23812	786.94572	-677.96062	413.34824	697.61687	-629.63910	421.61818	610.73281	-702.85704	417.63651	515.60289	-725.38239	525.39057	491.36250	-693.24559	791.51832	826.87226	-664.98000	792.86581	719.08501	-625.47177	784.16846	613.45068	-695.98567	786.23657	527.25218	-687.17967	673.79795	507.40059	-682.40125	451.29460	387.93647	-680.44437	400.68286	321.38782	-729.02342	448.02378	202.93083	-707.91498	412.85804	125.63058	-764.88272	484.73900	137.66254	-730.10077	752.09123	405.58875	-662.31816	809.53075	338.15895	-729.42253	762.69269	219.51717	-688.53980	728.55135	132.67735	-695.04065	800.05760	119.65005	-748.40377	466.52903	108.07060	-813.45750	464.91874	71.07361	-593.26790	367.97315	45.73736	-644.25741	745.42481	107.13253	-797.24030	771.78373	71.55494	-580.21364	860.37205	47.34430	-637.62625	753.44020	1495.12921	-704.09472	453.59257	1498.60990	-683.86302	589.64102	1439.81899	-595.50830	596.83400	1519.36407	-744.96065	763.80127	1432.98403	-642.32971	754.30917	1441.87495	-785.51910	451.42261	1440.66762	-626.97785	429.14643	1447.16741	-760.93885	367.28672	1368.05087	-705.43731	383.48384	1291.37536	-758.28022	346.28462	1226.58823	-692.23510	337.65300	1158.64502	-714.09709	405.25250	1149.48388	-728.35206	829.31257	1360.85586	-743.29877	791.39172	1290.35361	-780.88315	853.49011	1250.74790	-727.35738	867.90931	1167.61793	-737.46504	804.56980	1152.78084	-753.55802	303.70119	1070.75595	-651.96028	328.69658	947.92583	-578.38814	322.71678	932.30700	-647.32075	890.85494	1094.06594	-652.49324	873.60178	956.17800	-584.91831	878.71164	934.74761	-652.10412	508.93493	936.53535	-652.32049	684.92811	948.94041	-672.27011	
270	2.70000	729.05210	1021.92181	-609.69150	484.01208	1023.35789	-599.09920	648.26203	1048.07437	-770.71501	551.20140	1045.10073	-770.01784	408.22671	786.91209	-678.18785	413.35075	697.55745	-629.87196	421.68901	610.70530	-703.21660	417.65209	515.52521	-725.87194	525.40818	491.37410	-693.75186	791.50027	826.86627	-665.50439	792.87467	719.10174	-625.88916	784.18211	613.48105	-696.50336	786.22546	527.25997	-687.65762	673.64939	507.41627	-682.65229	451.26867	387.97768	-680.69642	400.63343	321.39269	-729.16814	447.99903	202.97506	-708.20393	413.28381	125.64501	-764.91310	484.75878	137.65000	-730.16407	751.98716	405.54638	-662.67575	809.53997	338.14042	-729.67931	762.65949	219.49255	-688.71362	728.61318	132.66141	-695.11349	800.12121	119.62910	-748.47213	466.55855	108.03175	-813.50035	464.94868	71.07688	-593.30869	368.03990	45.71366	-644.30166	745.47881	107.11520	-797.25857	771.91573	71.49788	-580.32034	860.43344	47.34196	-637.64542	753.24054	1495.31557	-704.51645	453.79522	1498.94065	-684.33430	589.56019	1439.98600	-595.62764	597.00883	1519.35657	-745.06509	763.75372	1433.46232	-642.81538	754.03244	1441.77053	-785.70907	451.42138	1441.22865	-627.40410	429.54582	1447.21028	-761.43330	366.33374	1369.40566	-706.18248	382.90966	1291.88703	-757.67457	342.15480	1229.21637	-692.31419	332.16183	1161.37727	-713.61564	399.90938	1150.20896	-726.33518	829.74524	1362.06583	-743.68693	792.71505	1290.38737	-779.61525	857.15789	1253.33219	-727.26775	873.82718	1170.66439	-736.84402	810.67424	1153.80643	-751.71759	294.96492	1074.82431	-651.58425	314.96435	952.48953	-575.95140	311.24183	936.01669	-645.40213	900.29468	1098.36768	-651.91733	888.44429	960.39283	-583.27317	892.87227	938.69678	-650.47962	508.87319	936.51430	-652.54236	684.85913	948.93804	-672.54319	
271	2.71000	728.98473	1021.90527	-609.95271	483.96452	1023.30015	-599.16059	648.13689	1048.13299	-770.96330	551.05758	1045.18215	-770.18021	408.17438	786.88207	-678.37647	413.37068	697.51046	-630.10958	421.72305	610.67581	-703.53869	417.64428	515.46706	-726.34249	525.42230	491.39739	-694.26892	791.48448	826.85028	-666.20802	792.88262	719.12318	-626.31225	784.15972	613.50287	-696.99533	786.19230	527.28573	-688.13532	673.52915	507.52810	-682.91778	451.20411	388.01412	-681.00838	400.58689	321.46210	-729.33518	447.93565	203.01453	-708.55280	413.35745	125.65575	-765.01319	484.76175	137.64292	-730.22968	751.90684	405.55792	-663.02553	809.53612	338.13917	-729.94758	762.62847	219.48256	-688.89858	728.67010	132.67375	-695.22583	800.17992	119.63642	-748.58003	466.56990	107.98426	-813.53447	464.97749	71.09175	-593.37575	368.08790	45.70923	-644.35576	745.52175	107.09669	-797.27595	772.01085	71.49403	-580.38184	860.49745	47.37203	-637.72099	753.00394	1495.53766	-704.98214	454.02510	1499.30391	-684.85885	589.51177	1440.18895	-595.75776	597.20283	1519.35838	-745.18420	763.70773	1434.02025	-643.36730	753.80744	1441.67349	-785.99275	451.45136	1441.85370	-627.86572	429.93635	1447.31231	-761.95005	365.26638	1370.88882	-706.91615	382.21362	1292.55657	-756.92717	337.56836	1232.18544	-692.43462	326.31632	1164.43963	-713.14340	393.96395	1151.29939	-724.59888	830.27831	1363.43955	-744.13983	794.17401	1290.49183	-778.20911	861.09610	1256.23539	-727.22770	880.15842	1174.11645	-736.21541	817.32117	1155.13208	-749.82142	285.74542	1079.53929	-651.08780	300.55196	957.85531	-573.45207	299.15924	940.36415	-643.38295	910.26055	1103.29128	-651.36230	904.04146	965.42429	-581.71263	907.88395	943.41794	-648.77241	508.80144	936.50034	-652.73280	684.77746	948.95135	-672.80296	
